<svg data-name="Layer 1" xmlns="http://www.w3.org/2000/svg" viewBox="74 -8 1111.1111 250">

    <path class="s2" d="M922.8418,98.32581c-1.163-16.279-13.809-24.71-32.996-24.71-22.093,0-30.96,12.501-30.96,23.984,0,30.815,44.769,19.477,44.769,31.977,0,6.105-6.977,7.704-12.355,7.704-6.25,0-12.646-2.907-12.937-10.175h-20.931c1.745,22.094,22.676,25.292,33.141,25.292,30.815,0,34.013-19.187,34.013-25.001,0-30.233-46.513-18.605-46.513-31.978,0-4.506,5.523-6.686,11.047-6.686,7.994,0,12.5,3.779,12.791,10.029Z" style="fill:rgba(255,255,255,1)"></path>

    <path class="b" d="M772.2558,150.3628h20.059v-10.465h.291c5.959,8.866,14.681,12.5,24.274,12.5,20.785,0,34.88495-18.751,34.88495-39.536,0-20.786-13.082-39.246-34.594-39.246-9.594,0-16.716,3.053-23.693,12.21h-.291v-44.769h-20.931Zm57.706-36.92c0,11.774-6.541,22.094-18.896,22.094-11.919,0-18.605-9.884-18.605-22.385,0-11.192,6.104-21.803,19.186-21.803,12.065,0,18.315,10.757,18.315,22.094" style="fill:rgba(255,255,255,1)"></path>

    <path class="a" d="M741.29681,150.3628h20.204a41.28749,41.28749,0,0,1-1.017-9.303V97.7448c0-17.152-15.408-24.129-33.868-24.129-26.163,0-34.303,14.681-35.03,26.164h20.059c.436-6.686,5.523-11.047,14.099-11.047,9.157,0,14.681,4.361,14.681,13.227v3.489l-19.332,1.163c-29.216,1.744-31.83295,14.971-31.83295,22.965,0,17.007,14.39,22.821,26.16394,22.821,8.721,0,18.605-2.616,25.582-11.774h.291Zm-.872-25.728c0,9.012-10.611,12.646-17.152,12.646-6.977,0-13.082-2.035-13.082-8.721,0-5.378,3.198-8.285,12.792-9.157l17.442-1.599Z" style="fill:rgba(255,255,255,1)"></path>

    <polygon class="l" points="617.892 150.363 681.702 150.363 681.702 130.013 639.695 130.013 639.695 41.057 617.892 41.057 617.892 150.363" style="fill:rgba(255,255,255,1)"></polygon>

    <path class="s1" d="M565.56378,98.32581c-1.162-16.279-13.808-24.71-32.995-24.71-22.094,0-30.96,12.501-30.96,23.984,0,30.815,44.769,19.477,44.769,31.977,0,6.105-6.97705,7.704-12.355,7.704-6.251,0-12.646-2.907-12.937-10.175h-20.931c1.744,22.094,22.675,25.292,33.141,25.292,30.815,0,34.013-19.187,34.013-25.001,0-30.233-46.514-18.605-46.514-31.978,0-4.506,5.524-6.686,11.047-6.686,7.995,0,12.501,3.779,12.792,10.029Z" style="fill:rgba(255,255,255,1)"></path>

    <path class="r" d="M451.17178,150.3628h20.931v-36.629c0-13.227,8.431-19.768,19.187-19.768h4.651v-20.35h-2.907c-9.884,0-17.588,5.814-21.512,16.425h-.291v-14.39h-20.059Z" style="fill:rgba(255,255,255,1)"></path>

    <path class="e" d="M387.65479,105.5938c1.163-8.43,6.541-15.989,17.442-15.989,10.03,0,15.553,8.721,16.28,15.989Zm54.653,13.373v-5.815c0-24.128-15.698-39.536-38.228-39.536s-38.228,15.408-38.228,39.536c0,23.838,15.698,39.246,38.228,39.246,17.588,0,31.251-7.995,36.338-23.257l-20.349-1.599c-2.907,5.815-8.576,8.867-14.972,8.867-11.192,0-16.57-8.721-17.442-17.442Z" style="fill:rgba(255,255,255,1)"></path>
    
    <polygon class="v" points="315.705 150.363 337.508 150.363 365.561 75.651 342.595 75.651 326.752 125.071 326.461 125.071 310.617 75.651 287.651 75.651 315.705 150.363" style="fill:rgba(255,255,255,1)"></polygon>

     <!-- nasty original <path class ='i-dot' d="M258.14478,52.53981a12.54667,12.54667,0,0,0,12.209,12.064c6.687,0,12.21-5.959,12.21-12.355,0-6.686-5.959-12.064-12.21-12.064-6.977,0-12.209,6.25-12.209,12.355" style="fill:#090"/> 
     -->

     <!-- had to rebuild dot as caused an animation glitch -->
    <circle class="i-dot" cx="270.2" cy="52.5" r="12" style="fill:rgba(255,255,255,1)"></circle>

    <rect class="i-line" x="259.88879" y="75.6508" width="20.931" height="74.712" style="fill:rgba(255,255,255,1)"></rect>

    <path class="n" d="M226.45979,150.3628h20.931V99.6348c0-14.39-8.14-26.019-26.164-26.019-8.431,0-15.844,2.762-22.094,11.774h-.291v-9.739h-20.058v74.712h20.93v-42.443c0-10.175,5.233-17.443,13.664-17.443,6.541,0,13.082,3.634,13.082,14.39Z" style="fill:rgba(255,255,255,1)"></path>

    <path class="u" d="M146.0788,105.1578c0,18.169-8.14,27.763-23.693,27.763s-23.692-9.594-23.692-27.763v-64.101h-21.803v63.956c0,34.158,21.657,47.385,45.495,47.385s45.496-13.227,45.496-47.385v-63.956h-21.803Z" style="fill:rgba(255,255,255,1)"></path>
</svg>